<svg width="108" height="108" xmlns="http://www.w3.org/2000/svg" xmlns:xlink="http://www.w3.org/1999/xlink" preserveAspectRatio="xMidYMid meet">
 <defs>
  <path id="c26Eav99HM" d="m324.51,194.71c0,0 0,0 0,0c0,65.03 0,101.16 0,108.39c0,0 0,0 0,0c-20.73,0 -32.24,0 -34.55,0c0,0 0,0 0,0c0,-65.03 0,-101.16 0,-108.39c0,0 0,0 0,0c20.73,0 32.25,0 34.55,0z"/>
  <path id="bds4HTYBS" d="m294.21,300.9c0,0 0,0 0,0c0,2.64 0,4.11 0,4.4c0,0 0,0 0,0c-2.55,0 -3.96,0 -4.25,0c0,0 0,0 0,0c0,-2.64 0,-4.11 0,-4.4c0,0 0,0 0,0c2.55,0 3.97,0 4.25,0z"/>
  <path id="aYrPzMIsO" d="m299.64,300.9c0,0 0,0 0,0c0,2.64 0,4.11 0,4.4c0,0 0,0 0,0c-2.55,0 -3.96,0 -4.25,0c0,0 0,0 0,0c0,-2.64 0,-4.11 0,-4.4c0,0 0,0 0,0c2.55,0 3.97,0 4.25,0z"/>
  <path id="a1xIwHAe7b" d="m305.17,300.9c0,0 0,0 0,0c0,2.64 0,4.11 0,4.4c0,0 0,0 0,0c-2.55,0 -3.96,0 -4.24,0c0,0 0,0 0,0c0,-2.64 0,-4.11 0,-4.4c0,0 0,0 0,0c2.54,0 3.96,0 4.24,0z"/>
  <path id="a3QWiUs1su" d="m310.7,300.9c0,0 0,0 0,0c0,2.64 0,4.11 0,4.4c0,0 0,0 0,0c-2.54,0 -3.96,0 -4.24,0c0,0 0,0 0,0c0,-2.64 0,-4.11 0,-4.4c0,0 0,0 0,0c2.55,0 3.96,0 4.24,0z"/>
  <path id="d25OqV1wUs" d="m316.24,300.9c0,0 0,0 0,0c0,2.64 0,4.11 0,4.4c0,0 0,0 0,0c-2.55,0 -3.97,0 -4.25,0c0,0 0,0 0,0c0,-2.64 0,-4.11 0,-4.4c0,0 0,0 0,0c2.55,0 3.96,0 4.25,0z"/>
  <path id="aCvY9eDF0" d="m321.67,300.9c0,0 0,0 0,0c0,2.64 0,4.11 0,4.4c0,0 0,0 0,0c-2.55,0 -3.97,0 -4.25,0c0,0 0,0 0,0c0,-2.64 0,-4.11 0,-4.4c0,0 0,0 0,0c2.55,0 3.96,0 4.25,0z"/>
  <path id="a1CNmXqAcy" d="m294.21,289.8c0,0 0,0 0,0c0,2.64 0,4.11 0,4.4c0,0 0,0 0,0c-2.55,0 -3.96,0 -4.25,0c0,0 0,0 0,0c0,-2.64 0,-4.11 0,-4.4c0,0 0,0 0,0c2.55,0 3.97,0 4.25,0z"/>
  <path id="i1VNCZsVDH" d="m299.64,289.8c0,0 0,0 0,0c0,2.64 0,4.11 0,4.4c0,0 0,0 0,0c-2.55,0 -3.96,0 -4.25,0c0,0 0,0 0,0c0,-2.64 0,-4.11 0,-4.4c0,0 0,0 0,0c2.55,0 3.97,0 4.25,0z"/>
  <path id="h2rW5y5xGJ" d="m305.17,289.8c0,0 0,0 0,0c0,2.64 0,4.11 0,4.4c0,0 0,0 0,0c-2.55,0 -3.96,0 -4.24,0c0,0 0,0 0,0c0,-2.64 0,-4.11 0,-4.4c0,0 0,0 0,0c2.54,0 3.96,0 4.24,0z"/>
  <path id="blHUGlvtg" d="m310.7,289.8c0,0 0,0 0,0c0,2.64 0,4.11 0,4.4c0,0 0,0 0,0c-2.54,0 -3.96,0 -4.24,0c0,0 0,0 0,0c0,-2.64 0,-4.11 0,-4.4c0,0 0,0 0,0c2.55,0 3.96,0 4.24,0z"/>
  <path id="h63gHhzpS" d="m316.24,289.8c0,0 0,0 0,0c0,2.64 0,4.11 0,4.4c0,0 0,0 0,0c-2.55,0 -3.97,0 -4.25,0c0,0 0,0 0,0c0,-2.64 0,-4.11 0,-4.4c0,0 0,0 0,0c2.55,0 3.96,0 4.25,0z"/>
  <path id="ch2Bdjz6h" d="m321.67,289.8c0,0 0,0 0,0c0,2.64 0,4.11 0,4.4c0,0 0,0 0,0c-2.55,0 -3.97,0 -4.25,0c0,0 0,0 0,0c0,-2.64 0,-4.11 0,-4.4c0,0 0,0 0,0c2.55,0 3.96,0 4.25,0z"/>
  <path id="g1VklxprL" d="m294.21,284.3c0,0 0,0 0,0c0,2.64 0,4.11 0,4.4c0,0 0,0 0,0c-2.55,0 -3.96,0 -4.25,0c0,0 0,0 0,0c0,-2.64 0,-4.11 0,-4.4c0,0 0,0 0,0c2.55,0 3.97,0 4.25,0z"/>
  <path id="aa3DOt7m2" d="m299.64,284.3c0,0 0,0 0,0c0,2.64 0,4.11 0,4.4c0,0 0,0 0,0c-2.55,0 -3.96,0 -4.25,0c0,0 0,0 0,0c0,-2.64 0,-4.11 0,-4.4c0,0 0,0 0,0c2.55,0 3.97,0 4.25,0z"/>
  <path id="a3pFlbBjw" d="m305.17,284.3c0,0 0,0 0,0c0,2.64 0,4.11 0,4.4c0,0 0,0 0,0c-2.55,0 -3.96,0 -4.24,0c0,0 0,0 0,0c0,-2.64 0,-4.11 0,-4.4c0,0 0,0 0,0c2.54,0 3.96,0 4.24,0z"/>
  <path id="a2O9pHtzm5" d="m310.7,284.3c0,0 0,0 0,0c0,2.64 0,4.11 0,4.4c0,0 0,0 0,0c-2.54,0 -3.96,0 -4.24,0c0,0 0,0 0,0c0,-2.64 0,-4.11 0,-4.4c0,0 0,0 0,0c2.55,0 3.96,0 4.24,0z"/>
  <path id="b4aEk2aja9" d="m316.24,284.3c0,0 0,0 0,0c0,2.64 0,4.11 0,4.4c0,0 0,0 0,0c-2.55,0 -3.97,0 -4.25,0c0,0 0,0 0,0c0,-2.64 0,-4.11 0,-4.4c0,0 0,0 0,0c2.55,0 3.96,0 4.25,0z"/>
  <path id="e1rx4nsiDj" d="m321.67,284.3c0,0 0,0 0,0c0,2.64 0,4.11 0,4.4c0,0 0,0 0,0c-2.55,0 -3.97,0 -4.25,0c0,0 0,0 0,0c0,-2.64 0,-4.11 0,-4.4c0,0 0,0 0,0c2.55,0 3.96,0 4.25,0z"/>
  <path id="afXrz3A37" d="m294.21,278.7c0,0 0,0 0,0c0,2.64 0,4.11 0,4.4c0,0 0,0 0,0c-2.55,0 -3.96,0 -4.25,0c0,0 0,0 0,0c0,-2.64 0,-4.11 0,-4.4c0,0 0,0 0,0c2.55,0 3.97,0 4.25,0z"/>
  <path id="d2NQIsBAnA" d="m299.64,278.7c0,0 0,0 0,0c0,2.64 0,4.11 0,4.4c0,0 0,0 0,0c-2.55,0 -3.96,0 -4.25,0c0,0 0,0 0,0c0,-2.64 0,-4.11 0,-4.4c0,0 0,0 0,0c2.55,0 3.97,0 4.25,0z"/>
  <path id="d4DbZ6xuH" d="m305.17,278.7c0,0 0,0 0,0c0,2.64 0,4.11 0,4.4c0,0 0,0 0,0c-2.55,0 -3.96,0 -4.24,0c0,0 0,0 0,0c0,-2.64 0,-4.11 0,-4.4c0,0 0,0 0,0c2.54,0 3.96,0 4.24,0z"/>
  <path id="h1LGEH3NR0" d="m310.7,278.7c0,0 0,0 0,0c0,2.64 0,4.11 0,4.4c0,0 0,0 0,0c-2.54,0 -3.96,0 -4.24,0c0,0 0,0 0,0c0,-2.64 0,-4.11 0,-4.4c0,0 0,0 0,0c2.55,0 3.96,0 4.24,0z"/>
  <path id="e8pUb7DvjG" d="m316.24,278.7c0,0 0,0 0,0c0,2.64 0,4.11 0,4.4c0,0 0,0 0,0c-2.55,0 -3.97,0 -4.25,0c0,0 0,0 0,0c0,-2.64 0,-4.11 0,-4.4c0,0 0,0 0,0c2.55,0 3.96,0 4.25,0z"/>
  <path id="n3VIo07C" d="m321.67,278.7c0,0 0,0 0,0c0,2.64 0,4.11 0,4.4c0,0 0,0 0,0c-2.55,0 -3.97,0 -4.25,0c0,0 0,0 0,0c0,-2.64 0,-4.11 0,-4.4c0,0 0,0 0,0c2.55,0 3.96,0 4.25,0z"/>
  <path id="aDpK4oVWI" d="m294.21,273.2c0,0 0,0 0,0c0,2.64 0,4.11 0,4.4c0,0 0,0 0,0c-2.55,0 -3.96,0 -4.25,0c0,0 0,0 0,0c0,-2.64 0,-4.11 0,-4.4c0,0 0,0 0,0c2.55,0 3.97,0 4.25,0z"/>
  <path id="a18dMUQ8" d="m299.64,273.2c0,0 0,0 0,0c0,2.64 0,4.11 0,4.4c0,0 0,0 0,0c-2.55,0 -3.96,0 -4.25,0c0,0 0,0 0,0c0,-2.64 0,-4.11 0,-4.4c0,0 0,0 0,0c2.55,0 3.97,0 4.25,0z"/>
  <path id="a3Tk7Uzhw3" d="m305.17,273.2c0,0 0,0 0,0c0,2.64 0,4.11 0,4.4c0,0 0,0 0,0c-2.55,0 -3.96,0 -4.24,0c0,0 0,0 0,0c0,-2.64 0,-4.11 0,-4.4c0,0 0,0 0,0c2.54,0 3.96,0 4.24,0z"/>
  <path id="b1A83x8yq" d="m310.7,273.2c0,0 0,0 0,0c0,2.64 0,4.11 0,4.4c0,0 0,0 0,0c-2.54,0 -3.96,0 -4.24,0c0,0 0,0 0,0c0,-2.64 0,-4.11 0,-4.4c0,0 0,0 0,0c2.55,0 3.96,0 4.24,0z"/>
  <path id="b1xfGyefj" d="m316.24,273.2c0,0 0,0 0,0c0,2.64 0,4.11 0,4.4c0,0 0,0 0,0c-2.55,0 -3.97,0 -4.25,0c0,0 0,0 0,0c0,-2.64 0,-4.11 0,-4.4c0,0 0,0 0,0c2.55,0 3.96,0 4.25,0z"/>
  <path id="dEbduOOOO" d="m321.67,273.2c0,0 0,0 0,0c0,2.64 0,4.11 0,4.4c0,0 0,0 0,0c-2.55,0 -3.97,0 -4.25,0c0,0 0,0 0,0c0,-2.64 0,-4.11 0,-4.4c0,0 0,0 0,0c2.55,0 3.96,0 4.25,0z"/>
  <path id="i4U9xIbq5p" d="m294.21,295.3c0,0 0,0 0,0c0,2.64 0,4.11 0,4.4c0,0 0,0 0,0c-2.55,0 -3.96,0 -4.25,0c0,0 0,0 0,0c0,-2.64 0,-4.11 0,-4.4c0,0 0,0 0,0c2.55,0 3.97,0 4.25,0z"/>
  <path id="g1KFTeCbsC" d="m299.64,295.3c0,0 0,0 0,0c0,2.64 0,4.11 0,4.4c0,0 0,0 0,0c-2.55,0 -3.96,0 -4.25,0c0,0 0,0 0,0c0,-2.64 0,-4.11 0,-4.4c0,0 0,0 0,0c2.55,0 3.97,0 4.25,0z"/>
  <path id="l3esbXGhI" d="m305.17,295.3c0,0 0,0 0,0c0,2.64 0,4.11 0,4.4c0,0 0,0 0,0c-2.55,0 -3.96,0 -4.24,0c0,0 0,0 0,0c0,-2.64 0,-4.11 0,-4.4c0,0 0,0 0,0c2.54,0 3.96,0 4.24,0z"/>
  <path id="c1IaXI3ERF" d="m310.7,295.3c0,0 0,0 0,0c0,2.64 0,4.11 0,4.4c0,0 0,0 0,0c-2.54,0 -3.96,0 -4.24,0c0,0 0,0 0,0c0,-2.64 0,-4.11 0,-4.4c0,0 0,0 0,0c2.55,0 3.96,0 4.24,0z"/>
  <path id="jHWRF95UD" d="m316.24,295.3c0,0 0,0 0,0c0,2.64 0,4.11 0,4.4c0,0 0,0 0,0c-2.55,0 -3.97,0 -4.25,0c0,0 0,0 0,0c0,-2.64 0,-4.11 0,-4.4c0,0 0,0 0,0c2.55,0 3.96,0 4.25,0z"/>
  <path id="b31kchXYqR" d="m321.67,295.3c0,0 0,0 0,0c0,2.64 0,4.11 0,4.4c0,0 0,0 0,0c-2.55,0 -3.97,0 -4.25,0c0,0 0,0 0,0c0,-2.64 0,-4.11 0,-4.4c0,0 0,0 0,0c2.55,0 3.96,0 4.25,0z"/>
  <path id="a3m24xuiiE" d="m305.17,239.9c0,0 0,0 0,0c0,9.3 0,14.47 0,15.5c0,0 0,0 0,0c-9.12,0 -14.19,0 -15.21,0c0,0 0,0 0,0c0,-9.3 0,-14.47 0,-15.5c0,0 0,0 0,0c9.13,0 14.2,0 15.21,0z"/>
  <path id="c1xmgtpVIY" d="m305.17,256.5c0,0 0,0 0,0c0,9.3 0,14.47 0,15.5c0,0 0,0 0,0c-9.12,0 -14.19,0 -15.21,0c0,0 0,0 0,0c0,-9.3 0,-14.47 0,-15.5c0,0 0,0 0,0c9.13,0 14.2,0 15.21,0z"/>
  <path id="a1gF07STpr" d="m321.67,239.9c0,0 0,0 0,0c0,9.3 0,14.47 0,15.5c0,0 0,0 0,0c-9.13,0 -14.2,0 -15.21,0c0,0 0,0 0,0c0,-9.3 0,-14.47 0,-15.5c0,0 0,0 0,0c9.12,0 14.19,0 15.21,0z"/>
  <path id="akL4wy17c" d="m321.67,256.5c0,0 0,0 0,0c0,9.3 0,14.47 0,15.5c0,0 0,0 0,0c-9.13,0 -14.2,0 -15.21,0c0,0 0,0 0,0c0,-9.3 0,-14.47 0,-15.5c0,0 0,0 0,0c9.12,0 14.19,0 15.21,0z"/>
  <path id="b1IklmTGgu" d="m321.77,199.8c0,0 0,0 0,0c0,19.32 0,30.05 0,32.2c0,0 0,0 0,0c-19.09,0 -29.69,0 -31.81,0c0,0 0,0 0,0c0,-19.32 0,-30.05 0,-32.2c0,0 0,0 0,0c19.08,0 29.69,0 31.81,0z"/>
 </defs>
 <g>
  <title>background</title>
  <rect fill="none" id="canvas_background" height="110" width="110" y="-1" x="-1"/>
 </g>
 <g>
  <title>Layer 1</title>
  <g id="svg_1">
   <g id="svg_2">
    <g id="svg_3">
     <use x="-253.234985" y="-198.004997" id="svg_4" fill-opacity="0" fill="#000000" xlink:href="#c26Eav99HM"/>
     <g id="svg_5">
      <use x="-253.234985" y="-198.004997" id="svg_6" stroke-opacity="0" stroke="#000000" fill-opacity="0" xlink:href="#c26Eav99HM"/>
     </g>
    </g>
    <g id="svg_7">
     <use x="-253.234985" y="-198.004997" id="svg_8" fill="#003d66" xlink:href="#bds4HTYBS"/>
     <g id="svg_9">
      <use x="-253.234985" y="-198.004997" id="svg_10" stroke-opacity="0" stroke="#000000" fill-opacity="0" xlink:href="#bds4HTYBS"/>
     </g>
    </g>
    <g id="svg_11">
     <use x="-253.234985" y="-198.004997" id="svg_12" fill="#003d66" xlink:href="#aYrPzMIsO"/>
     <g id="svg_13">
      <use x="-253.234985" y="-198.004997" id="svg_14" stroke-opacity="0" stroke="#000000" fill-opacity="0" xlink:href="#aYrPzMIsO"/>
     </g>
    </g>
    <g id="svg_15">
     <use x="-253.234985" y="-198.004997" id="svg_16" fill="#003d66" xlink:href="#a1xIwHAe7b"/>
     <g id="svg_17">
      <use x="-253.234985" y="-198.004997" id="svg_18" stroke-opacity="0" stroke="#000000" fill-opacity="0" xlink:href="#a1xIwHAe7b"/>
     </g>
    </g>
    <g id="svg_19">
     <use x="-253.234985" y="-198.004997" id="svg_20" fill="#003d66" xlink:href="#a3QWiUs1su"/>
     <g id="svg_21">
      <use x="-253.234985" y="-198.004997" id="svg_22" stroke-opacity="0" stroke="#000000" fill-opacity="0" xlink:href="#a3QWiUs1su"/>
     </g>
    </g>
    <g id="svg_23">
     <use x="-253.234985" y="-198.004997" id="svg_24" fill="#003d66" xlink:href="#d25OqV1wUs"/>
     <g id="svg_25">
      <use x="-253.234985" y="-198.004997" id="svg_26" stroke-opacity="0" stroke="#000000" fill-opacity="0" xlink:href="#d25OqV1wUs"/>
     </g>
    </g>
    <g id="svg_27">
     <use x="-253.234985" y="-198.004997" id="svg_28" fill="#003d66" xlink:href="#aCvY9eDF0"/>
     <g id="svg_29">
      <use x="-253.234985" y="-198.004997" id="svg_30" stroke-opacity="0" stroke="#000000" fill-opacity="0" xlink:href="#aCvY9eDF0"/>
     </g>
    </g>
    <g id="svg_31">
     <use x="-253.234985" y="-198.004997" id="svg_32" fill="#003d66" xlink:href="#a1CNmXqAcy"/>
     <g id="svg_33">
      <use x="-253.234985" y="-198.004997" id="svg_34" stroke-opacity="0" stroke="#000000" fill-opacity="0" xlink:href="#a1CNmXqAcy"/>
     </g>
    </g>
    <g id="svg_35">
     <use x="-253.234985" y="-198.004997" id="svg_36" fill="#003d66" xlink:href="#i1VNCZsVDH"/>
     <g id="svg_37">
      <use x="-253.234985" y="-198.004997" id="svg_38" stroke-opacity="0" stroke="#000000" fill-opacity="0" xlink:href="#i1VNCZsVDH"/>
     </g>
    </g>
    <g id="svg_39">
     <use x="-253.234985" y="-198.004997" id="svg_40" fill="#003d66" xlink:href="#h2rW5y5xGJ"/>
     <g id="svg_41">
      <use x="-253.234985" y="-198.004997" id="svg_42" stroke-opacity="0" stroke="#000000" fill-opacity="0" xlink:href="#h2rW5y5xGJ"/>
     </g>
    </g>
    <g id="svg_43">
     <use x="-253.234985" y="-198.004997" id="svg_44" fill="#003d66" xlink:href="#blHUGlvtg"/>
     <g id="svg_45">
      <use x="-253.234985" y="-198.004997" id="svg_46" stroke-opacity="0" stroke="#000000" fill-opacity="0" xlink:href="#blHUGlvtg"/>
     </g>
    </g>
    <g id="svg_47">
     <use x="-253.234985" y="-198.004997" id="svg_48" fill="#003d66" xlink:href="#h63gHhzpS"/>
     <g id="svg_49">
      <use x="-253.234985" y="-198.004997" id="svg_50" stroke-opacity="0" stroke="#000000" fill-opacity="0" xlink:href="#h63gHhzpS"/>
     </g>
    </g>
    <g id="svg_51">
     <use x="-253.234985" y="-198.004997" id="svg_52" fill="#003d66" xlink:href="#ch2Bdjz6h"/>
     <g id="svg_53">
      <use x="-253.234985" y="-198.004997" id="svg_54" stroke-opacity="0" stroke="#000000" fill-opacity="0" xlink:href="#ch2Bdjz6h"/>
     </g>
    </g>
    <g id="svg_55">
     <use x="-253.234985" y="-198.004997" id="svg_56" fill="#003d66" xlink:href="#g1VklxprL"/>
     <g id="svg_57">
      <use x="-253.234985" y="-198.004997" id="svg_58" stroke-opacity="0" stroke="#000000" fill-opacity="0" xlink:href="#g1VklxprL"/>
     </g>
    </g>
    <g id="svg_59">
     <use x="-253.234985" y="-198.004997" id="svg_60" fill="#003d66" xlink:href="#aa3DOt7m2"/>
     <g id="svg_61">
      <use x="-253.234985" y="-198.004997" id="svg_62" stroke-opacity="0" stroke="#000000" fill-opacity="0" xlink:href="#aa3DOt7m2"/>
     </g>
    </g>
    <g id="svg_63">
     <use x="-253.234985" y="-198.004997" id="svg_64" fill="#003d66" xlink:href="#a3pFlbBjw"/>
     <g id="svg_65">
      <use x="-253.234985" y="-198.004997" id="svg_66" stroke-opacity="0" stroke="#000000" fill-opacity="0" xlink:href="#a3pFlbBjw"/>
     </g>
    </g>
    <g id="svg_67">
     <use x="-253.234985" y="-198.004997" id="svg_68" fill="#003d66" xlink:href="#a2O9pHtzm5"/>
     <g id="svg_69">
      <use x="-253.234985" y="-198.004997" id="svg_70" stroke-opacity="0" stroke="#000000" fill-opacity="0" xlink:href="#a2O9pHtzm5"/>
     </g>
    </g>
    <g id="svg_71">
     <use x="-253.234985" y="-198.004997" id="svg_72" fill="#003d66" xlink:href="#b4aEk2aja9"/>
     <g id="svg_73">
      <use x="-253.234985" y="-198.004997" id="svg_74" stroke-opacity="0" stroke="#000000" fill-opacity="0" xlink:href="#b4aEk2aja9"/>
     </g>
    </g>
    <g id="svg_75">
     <use x="-253.234985" y="-198.004997" id="svg_76" fill="#003d66" xlink:href="#e1rx4nsiDj"/>
     <g id="svg_77">
      <use x="-253.234985" y="-198.004997" id="svg_78" stroke-opacity="0" stroke="#000000" fill-opacity="0" xlink:href="#e1rx4nsiDj"/>
     </g>
    </g>
    <g id="svg_79">
     <use x="-253.234985" y="-198.004997" id="svg_80" fill="#003d66" xlink:href="#afXrz3A37"/>
     <g id="svg_81">
      <use x="-253.234985" y="-198.004997" id="svg_82" stroke-opacity="0" stroke="#000000" fill-opacity="0" xlink:href="#afXrz3A37"/>
     </g>
    </g>
    <g id="svg_83">
     <use x="-253.234985" y="-198.004997" id="svg_84" fill="#003d66" xlink:href="#d2NQIsBAnA"/>
     <g id="svg_85">
      <use x="-253.234985" y="-198.004997" id="svg_86" stroke-opacity="0" stroke="#000000" fill-opacity="0" xlink:href="#d2NQIsBAnA"/>
     </g>
    </g>
    <g id="svg_87">
     <use x="-253.234985" y="-198.004997" id="svg_88" fill="#003d66" xlink:href="#d4DbZ6xuH"/>
     <g id="svg_89">
      <use x="-253.234985" y="-198.004997" id="svg_90" stroke-opacity="0" stroke="#000000" fill-opacity="0" xlink:href="#d4DbZ6xuH"/>
     </g>
    </g>
    <g id="svg_91">
     <use x="-253.234985" y="-198.004997" id="svg_92" fill="#003d66" xlink:href="#h1LGEH3NR0"/>
     <g id="svg_93">
      <use x="-253.234985" y="-198.004997" id="svg_94" stroke-opacity="0" stroke="#000000" fill-opacity="0" xlink:href="#h1LGEH3NR0"/>
     </g>
    </g>
    <g id="svg_95">
     <use x="-253.234985" y="-198.004997" id="svg_96" fill="#003d66" xlink:href="#e8pUb7DvjG"/>
     <g id="svg_97">
      <use x="-253.234985" y="-198.004997" id="svg_98" stroke-opacity="0" stroke="#000000" fill-opacity="0" xlink:href="#e8pUb7DvjG"/>
     </g>
    </g>
    <g id="svg_99">
     <use x="-253.234985" y="-198.004997" id="svg_100" fill="#003d66" xlink:href="#n3VIo07C"/>
     <g id="svg_101">
      <use x="-253.234985" y="-198.004997" id="svg_102" stroke-opacity="0" stroke="#000000" fill-opacity="0" xlink:href="#n3VIo07C"/>
     </g>
    </g>
    <g id="svg_103">
     <use x="-253.234985" y="-198.004997" id="svg_104" fill="#003d66" xlink:href="#aDpK4oVWI"/>
     <g id="svg_105">
      <use x="-253.234985" y="-198.004997" id="svg_106" stroke-opacity="0" stroke="#000000" fill-opacity="0" xlink:href="#aDpK4oVWI"/>
     </g>
    </g>
    <g id="svg_107">
     <use x="-253.234985" y="-198.004997" id="svg_108" fill="#003d66" xlink:href="#a18dMUQ8"/>
     <g id="svg_109">
      <use x="-253.234985" y="-198.004997" id="svg_110" stroke-opacity="0" stroke="#000000" fill-opacity="0" xlink:href="#a18dMUQ8"/>
     </g>
    </g>
    <g id="svg_111">
     <use x="-253.234985" y="-198.004997" id="svg_112" fill="#003d66" xlink:href="#a3Tk7Uzhw3"/>
     <g id="svg_113">
      <use x="-253.234985" y="-198.004997" id="svg_114" stroke-opacity="0" stroke="#000000" fill-opacity="0" xlink:href="#a3Tk7Uzhw3"/>
     </g>
    </g>
    <g id="svg_115">
     <use x="-253.234985" y="-198.004997" id="svg_116" fill="#003d66" xlink:href="#b1A83x8yq"/>
     <g id="svg_117">
      <use x="-253.234985" y="-198.004997" id="svg_118" stroke-opacity="0" stroke="#000000" fill-opacity="0" xlink:href="#b1A83x8yq"/>
     </g>
    </g>
    <g id="svg_119">
     <use x="-253.234985" y="-198.004997" id="svg_120" fill="#003d66" xlink:href="#b1xfGyefj"/>
     <g id="svg_121">
      <use x="-253.234985" y="-198.004997" id="svg_122" stroke-opacity="0" stroke="#000000" fill-opacity="0" xlink:href="#b1xfGyefj"/>
     </g>
    </g>
    <g id="svg_123">
     <use x="-253.234985" y="-198.004997" id="svg_124" fill="#003d66" xlink:href="#dEbduOOOO"/>
     <g id="svg_125">
      <use x="-253.234985" y="-198.004997" id="svg_126" stroke-opacity="0" stroke="#000000" fill-opacity="0" xlink:href="#dEbduOOOO"/>
     </g>
    </g>
    <g id="svg_127">
     <use x="-253.234985" y="-198.004997" id="svg_128" fill="#003d66" xlink:href="#i4U9xIbq5p"/>
     <g id="svg_129">
      <use x="-253.234985" y="-198.004997" id="svg_130" stroke-opacity="0" stroke="#000000" fill-opacity="0" xlink:href="#i4U9xIbq5p"/>
     </g>
    </g>
    <g id="svg_131">
     <use x="-253.234985" y="-198.004997" id="svg_132" fill="#003d66" xlink:href="#g1KFTeCbsC"/>
     <g id="svg_133">
      <use x="-253.234985" y="-198.004997" id="svg_134" stroke-opacity="0" stroke="#000000" fill-opacity="0" xlink:href="#g1KFTeCbsC"/>
     </g>
    </g>
    <g id="svg_135">
     <use x="-253.234985" y="-198.004997" id="svg_136" fill="#003d66" xlink:href="#l3esbXGhI"/>
     <g id="svg_137">
      <use x="-253.234985" y="-198.004997" id="svg_138" stroke-opacity="0" stroke="#000000" fill-opacity="0" xlink:href="#l3esbXGhI"/>
     </g>
    </g>
    <g id="svg_139">
     <use x="-253.234985" y="-198.004997" id="svg_140" fill="#003d66" xlink:href="#c1IaXI3ERF"/>
     <g id="svg_141">
      <use x="-253.234985" y="-198.004997" id="svg_142" stroke-opacity="0" stroke="#000000" fill-opacity="0" xlink:href="#c1IaXI3ERF"/>
     </g>
    </g>
    <g id="svg_143">
     <use x="-253.234985" y="-198.004997" id="svg_144" fill="#003d66" xlink:href="#jHWRF95UD"/>
     <g id="svg_145">
      <use x="-253.234985" y="-198.004997" id="svg_146" stroke-opacity="0" stroke="#000000" fill-opacity="0" xlink:href="#jHWRF95UD"/>
     </g>
    </g>
    <g id="svg_147">
     <use x="-253.234985" y="-198.004997" id="svg_148" fill="#003d66" xlink:href="#b31kchXYqR"/>
     <g id="svg_149">
      <use x="-253.234985" y="-198.004997" id="svg_150" stroke-opacity="0" stroke="#000000" fill-opacity="0" xlink:href="#b31kchXYqR"/>
     </g>
    </g>
    <g id="svg_151">
     <use x="-253.234985" y="-198.004997" id="svg_152" fill="#003d66" xlink:href="#a3m24xuiiE"/>
     <g id="svg_153">
      <use x="-253.234985" y="-198.004997" id="svg_154" stroke-opacity="0" stroke="#000000" fill-opacity="0" xlink:href="#a3m24xuiiE"/>
     </g>
    </g>
    <g id="svg_155">
     <use x="-253.234985" y="-198.004997" id="svg_156" fill="#003d66" xlink:href="#c1xmgtpVIY"/>
     <g id="svg_157">
      <use x="-253.234985" y="-198.004997" id="svg_158" stroke-opacity="0" stroke="#000000" fill-opacity="0" xlink:href="#c1xmgtpVIY"/>
     </g>
    </g>
    <g id="svg_159">
     <use x="-253.234985" y="-198.004997" id="svg_160" fill="#003d66" xlink:href="#a1gF07STpr"/>
     <g id="svg_161">
      <use x="-253.234985" y="-198.004997" id="svg_162" stroke-opacity="0" stroke="#000000" fill-opacity="0" xlink:href="#a1gF07STpr"/>
     </g>
    </g>
    <g id="svg_163">
     <use x="-253.234985" y="-198.004997" id="svg_164" fill="#003d66" xlink:href="#akL4wy17c"/>
     <g id="svg_165">
      <use x="-253.234985" y="-198.004997" id="svg_166" stroke-opacity="0" stroke="#000000" fill-opacity="0" xlink:href="#akL4wy17c"/>
     </g>
    </g>
    <g id="svg_167">
     <use x="-253.234985" y="-198.004997" id="svg_168" fill="#96be1e" xlink:href="#b1IklmTGgu"/>
     <g id="svg_169">
      <use x="-253.234985" y="-198.004997" id="svg_170" stroke-opacity="0" stroke="#000000" fill-opacity="0" xlink:href="#b1IklmTGgu"/>
     </g>
    </g>
   </g>
  </g>
 </g>
</svg>